<?xml version="1.0" encoding="UTF-8" standalone="no"?>
<!-- Created with Inkscape (http://www.inkscape.org/) -->

<svg
   width="190"
   height="70"
   viewBox="0 0 190 70"
   version="1.1"
   id="svg8"
   inkscape:version="1.1.1 (3bf5ae0d25, 2021-09-20, custom)"
   sodipodi:docname="logo.dark-theme.svg"
   xmlns:inkscape="http://www.inkscape.org/namespaces/inkscape"
   xmlns:sodipodi="http://sodipodi.sourceforge.net/DTD/sodipodi-0.dtd"
   xmlns="http://www.w3.org/2000/svg"
   xmlns:svg="http://www.w3.org/2000/svg">
  <defs
     id="defs11" />
  <sodipodi:namedview
     id="base"
     pagecolor="#000000"
     bordercolor="#666666"
     borderopacity="1.0"
     showgrid="true"
     units="px"
     showguides="true"
     inkscape:pageshadow="2"
     inkscape:pageopacity="0.0"
     inkscape:pagecheckerboard="0"
     inkscape:zoom="7.1210526"
     inkscape:cx="47.324464"
     inkscape:cy="54.345898"
     inkscape:window-width="1920"
     inkscape:window-height="1020"
     inkscape:window-x="0"
     inkscape:window-y="32"
     inkscape:window-maximized="1"
     inkscape:current-layer="layer1"
     inkscape:guide-bbox="true">
    <sodipodi:guide
       position="57,54"
       orientation="0,-1"
       id="guide3936" />
    <inkscape:grid
       type="xygrid"
       id="grid3938" />
    <sodipodi:guide
       position="53,53"
       orientation="1,0"
       id="guide3940" />
  </sodipodi:namedview>
  <g
     inkscape:label="Layer 1"
     inkscape:groupmode="layer"
     id="layer1">
    <path
       d="m 59.398619,15.931699 v 5.79687 h 6.908848 v 2.606768 h -6.908848 v 11.083324 q 0,2.497394 0.674478,3.208331 0.692708,0.710937 2.78906,0.710937 h 3.44531 v 2.807289 h -3.44531 q -3.882809,0 -5.35937,-1.440103 -1.476561,-1.458332 -1.476561,-5.286454 V 24.335337 H 53.56529 v -2.606768 h 2.460936 v -5.79687 z"
       style="font-size:37.3333px;line-height:1.25;letter-spacing:0px;word-spacing:0px;fill:#ffffff"
       id="path15009" />
    <path
       d="m 78.630373,24.080129 q -2.697915,0 -4.265622,2.114582 -1.567707,2.096352 -1.567707,5.760411 0,3.66406 1.549478,5.778641 1.567707,2.096353 4.283851,2.096353 2.679685,0 4.247392,-2.114582 1.567707,-2.114581 1.567707,-5.760412 0,-3.627601 -1.567707,-5.742182 -1.567707,-2.132811 -4.247392,-2.132811 z m 0,-2.843747 q 4.374996,0 6.87239,2.843747 2.497393,2.843748 2.497393,7.874993 0,5.013017 -2.497393,7.874994 -2.497394,2.843747 -6.87239,2.843747 -4.393226,0 -6.890619,-2.843747 -2.479165,-2.861977 -2.479165,-7.874994 0,-5.031245 2.479165,-7.874993 2.497393,-2.843747 6.890619,-2.843747 z"
       style="font-size:37.3333px;line-height:1.25;letter-spacing:0px;word-spacing:0px;fill:#ffffff"
       id="path15011" />
    <path
       d="M 93.213693,34.087933 V 21.728569 h 3.354164 v 12.23176 q 0,2.898435 1.130207,4.356767 1.130207,1.440103 3.390626,1.440103 2.71614,0 4.28385,-1.731769 1.58593,-1.73177 1.58593,-4.72135 V 21.728569 h 3.35417 v 20.416649 h -3.35417 v -3.135414 q -1.22135,1.859373 -2.84374,2.770831 -1.60417,0.893228 -3.73698,0.893228 -3.518227,0 -5.341142,-2.187498 -1.822915,-2.187498 -1.822915,-6.398432 z m 8.440097,-12.851551 z"
       style="font-size:37.3333px;line-height:1.25;letter-spacing:0px;word-spacing:0px;fill:#ffffff"
       id="path15013" />
    <path
       d="m 129.08866,21.728569 h 3.35417 v 20.416649 h -3.35417 z m 0,-7.94791 h 3.35417 v 4.247392 h -3.35417 z"
       style="font-size:37.3333px;line-height:1.25;letter-spacing:0px;word-spacing:0px;fill:#ffffff"
       id="path15015" />
    <path
       d="m 156.43239,29.822312 v 12.322906 h -3.35417 V 29.931687 q 0,-2.898435 -1.1302,-4.338538 -1.13021,-1.440103 -3.39063,-1.440103 -2.71614,0 -4.28385,1.731769 -1.5677,1.731769 -1.5677,4.72135 v 11.539053 h -3.3724 V 21.728569 h 3.3724 v 3.171872 q 1.20312,-1.841144 2.82552,-2.752602 1.64062,-0.911457 3.77343,-0.911457 3.51823,0 5.32291,2.187498 1.80469,2.169269 1.80469,6.398432 z"
       style="font-size:37.3333px;line-height:1.25;letter-spacing:0px;word-spacing:0px;fill:#ffffff"
       id="path15017" />
    <path
       d="m 176.55737,31.699914 q 0,-3.64583 -1.51302,-5.651037 -1.49479,-2.005206 -4.21093,-2.005206 -2.69792,0 -4.21094,2.005206 -1.49479,2.005207 -1.49479,5.651037 0,3.627601 1.49479,5.632808 1.51302,2.005207 4.21094,2.005207 2.71614,0 4.21093,-2.005207 1.51302,-2.005207 1.51302,-5.632808 z m 3.35416,7.911452 q 0,5.213537 -2.3151,7.747389 -2.3151,2.552081 -7.09114,2.552081 -1.76823,0 -3.33593,-0.273437 -1.56771,-0.255208 -3.04427,-0.802083 v -3.263018 q 1.47656,0.802083 2.91666,1.184895 1.44011,0.382812 2.9349,0.382812 3.29947,0 4.9401,-1.731769 1.64062,-1.71354 1.64062,-5.195308 v -1.658853 q -1.03906,1.804686 -2.66146,2.697914 -1.62239,0.893229 -3.88281,0.893229 -3.7552,0 -6.05207,-2.861977 -2.29688,-2.861977 -2.29688,-7.583327 0,-4.739579 2.29688,-7.601556 2.29687,-2.861976 6.05207,-2.861976 2.26042,0 3.88281,0.893228 1.6224,0.893228 2.66146,2.697914 v -3.098955 h 3.35416 z"
       style="font-size:37.3333px;line-height:1.25;letter-spacing:0px;word-spacing:0px;fill:#ffffff"
       id="path15019" />
    <path
       d="M 21.893225,24.827524 V 13.780659 h 3.354163 v 28.364559 h -3.354163 v -3.062497 q -1.057291,1.822915 -2.679686,2.716143 -1.604165,0.874999 -3.86458,0.874999 -3.700517,0 -6.0338487,-2.953122 -2.3151022,-2.953123 -2.3151022,-7.765619 0,-4.812495 2.3151022,-7.765618 2.3333317,-2.953122 6.0338487,-2.953122 2.260415,0 3.86458,0.893228 1.622395,0.874999 2.679686,2.697914 z m -11.429678,7.127598 q 0,3.700518 1.513019,5.8151 1.531249,2.096352 4.192705,2.096352 2.661456,0 4.192705,-2.096352 1.531249,-2.114582 1.531249,-5.8151 0,-3.700517 -1.531249,-5.79687 -1.531249,-2.114581 -4.192705,-2.114581 -2.661456,0 -4.192705,2.114581 -1.513019,2.096353 -1.513019,5.79687 z"
       style="font-size:37.3333px;line-height:1.25;letter-spacing:0px;word-spacing:0px;fill:#c67927;stroke-opacity:0"
       id="path15063" />
    <path
       d="m 49.619764,31.098352 v 1.640624 H 34.197902 q 0.21875,3.463539 2.078123,5.286454 1.877603,1.804686 5.213538,1.804686 1.93229,0 3.736976,-0.473958 1.822915,-0.473958 3.609371,-1.421874 v 3.171872 q -1.804686,0.765625 -3.700517,1.166666 -1.895832,0.401041 -3.846351,0.401041 -4.885413,0 -7.747389,-2.843747 -2.843748,-2.843748 -2.843748,-7.692702 0,-5.013017 2.697914,-7.94791 2.716144,-2.953122 7.30989,-2.953122 4.119788,0 6.507807,2.661456 2.406248,2.643227 2.406248,7.200514 z M 46.2656,30.113978 q -0.03646,-2.752602 -1.549478,-4.393225 -1.49479,-1.640624 -3.973955,-1.640624 -2.807289,0 -4.5026,1.585936 -1.677082,1.585936 -1.93229,4.466142 z"
       style="font-size:37.3333px;line-height:1.25;letter-spacing:0px;word-spacing:0px;fill:#c67927;stroke-opacity:0"
       id="path15065" />
    <path
       id="path9845"
       style="fill:#ffffff;"
       d="m 115.50001,20.998047 -0.0195,17.042969 c 0.009,6.479 -3.03994,10.361587 -7.80664,12.929687 -4.7667,2.5681 -11.306263,3.576744 -17.662111,3.527344 H 90.005859 7 v 3 h 82.988291 c 0.0039,3e-5 0.0078,-3e-5 0.01172,0 v 0.002 h 17.999999 v -3 h -0.75391 c 0.63133,-0.276633 1.25358,-0.566493 1.85157,-0.888672 5.46969,-2.9468 9.3934,-8.094319 9.38281,-15.574219 l 0.01,-7.746093 c 0.64218,-1.805915 1.32719,-3.277348 2.23243,-4.22461 0.93957,-0.9832 2.08522,-1.566406 4.27734,-1.566406 v -3 c -2.80788,0 -4.97894,0.957641 -6.44727,2.494141 -0.0195,0.02041 -0.0374,0.04194 -0.0566,0.0625 L 118.50038,21 Z" />
    <path
       style="fill:#c67927;"
       d="m 111.00001,54.4998 v 3 h 6 v -3 z m 9,0 v 3 h 6 v -3 z m 9,0 v 3 h 6 v -3 z m 9,0 v 3 h 6 v -3 z m 9,0 v 3 h 6 v -3 z m 9,0 v 3 h 6 v -3 z m 9,0 v 3 h 6 v -3 z m 9,0 v 3 h 6 v -3 z"
       id="path9853" />
  </g>
</svg>
